<?xml version="1.0" encoding="UTF-8"?><svg xmlns="http://www.w3.org/2000/svg" xmlns:xlink="http://www.w3.org/1999/xlink" fill-opacity="1" color-rendering="auto" color-interpolation="auto" text-rendering="auto" stroke="black" stroke-linecap="square" width="772" stroke-miterlimit="10" shape-rendering="auto" stroke-opacity="1" fill="black" stroke-dasharray="none" font-weight="normal" stroke-width="1" height="120" font-family="'Dialog'" font-style="normal" stroke-linejoin="miter" font-size="12px" stroke-dashoffset="0" image-rendering="auto">
  <!--Generated by ySVG 2.6-->
  <defs id="genericDefs"/>
  <g>
    <defs id="defs1">
      <clipPath clipPathUnits="userSpaceOnUse" id="clipPath1">
        <path d="M0 0 L772 0 L772 120 L0 120 L0 0 Z"/>
      </clipPath>
      <clipPath clipPathUnits="userSpaceOnUse" id="clipPath2">
        <path d="M249 121 L1021 121 L1021 241 L249 241 L249 121 Z"/>
      </clipPath>
      <clipPath clipPathUnits="userSpaceOnUse" id="clipPath3">
        <path d="M264 136 L378 136 L378 226 L264 226 L264 136 Z"/>
      </clipPath>
      <clipPath clipPathUnits="userSpaceOnUse" id="clipPath4">
        <path d="M568 136 L719 136 L719 226 L568 226 L568 136 Z"/>
      </clipPath>
      <clipPath clipPathUnits="userSpaceOnUse" id="clipPath5">
        <path d="M880 136 L1005 136 L1005 226 L880 226 L880 136 Z"/>
      </clipPath>
    </defs>
    <g fill="white" text-rendering="geometricPrecision" shape-rendering="geometricPrecision" transform="translate(-249,-121)" stroke="white">
      <rect x="249" width="772" height="120" y="121" clip-path="url(#clipPath2)" stroke="none"/>
    </g>
    <g id="y.node.0">
      <a target="_blank" xlink:type="simple" xlink:href="http://bp4mc2.org/def/mimex#Waardelijst" xlink:show="new">
        <g fill="rgb(255,255,199)" text-rendering="geometricPrecision" shape-rendering="geometricPrecision" transform="matrix(1,0,0,1,-249,-121)" stroke="rgb(255,255,199)">
          <rect x="264.501" width="114.998" height="90" y="136" stroke="none"/>
        </g>
        <g text-rendering="geometricPrecision" stroke-miterlimit="1.45" shape-rendering="geometricPrecision" transform="matrix(1,0,0,1,-249,-121)" stroke-linecap="butt">
          <rect fill="none" x="264.501" width="114.998" height="90" y="136"/>
          <text x="271.501" xml:space="preserve" y="152.6016" clip-path="url(#clipPath3)" font-family="sans-serif" stroke="none">&lt;&lt;Objecttype&gt;&gt;</text>
        </g>
        <g>
          <g font-size="13px" stroke-linecap="butt" transform="matrix(1,0,0,1,-249,-121)" text-rendering="geometricPrecision" font-family="sans-serif" shape-rendering="geometricPrecision" font-weight="bold" stroke-miterlimit="1.45">
            <text x="284.7107" xml:space="preserve" y="176.7012" clip-path="url(#clipPath3)" stroke="none">Waardelijst</text>
          </g>
        </g>
        <g text-rendering="geometricPrecision" shape-rendering="geometricPrecision" transform="matrix(1,0,0,1,-249,-121)">
          <line y2="184" fill="none" x1="265" clip-path="url(#clipPath3)" x2="378" y1="184"/>
          <text stroke-linecap="butt" x="269.501" y="201.0449" clip-path="url(#clipPath3)" font-family="sans-serif" stroke="none" stroke-miterlimit="1.45" xml:space="preserve">naam: Tekst</text>
          <line y2="208" fill="none" x1="265" clip-path="url(#clipPath3)" x2="378" y1="208"/>
        </g>
      </a>
    </g>
    <g id="y.node.1">
      <a target="_blank" xlink:type="simple" xlink:href="http://bp4mc2.org/def/mimex#Waarde" xlink:show="new">
        <g fill="rgb(255,255,199)" text-rendering="geometricPrecision" shape-rendering="geometricPrecision" transform="matrix(1,0,0,1,-249,-121)" stroke="rgb(255,255,199)">
          <rect x="568.0029" width="151.9941" height="90" y="136" stroke="none"/>
        </g>
        <g text-rendering="geometricPrecision" stroke-miterlimit="1.45" shape-rendering="geometricPrecision" transform="matrix(1,0,0,1,-249,-121)" stroke-linecap="butt">
          <rect fill="none" x="568.0029" width="151.9941" height="90" y="136"/>
          <text x="593.501" xml:space="preserve" y="152.6016" clip-path="url(#clipPath4)" font-family="sans-serif" stroke="none">&lt;&lt;Objecttype&gt;&gt;</text>
        </g>
        <g>
          <g font-size="13px" stroke-linecap="butt" transform="matrix(1,0,0,1,-249,-121)" text-rendering="geometricPrecision" font-family="sans-serif" shape-rendering="geometricPrecision" font-weight="bold" stroke-miterlimit="1.45">
            <text x="619.4124" xml:space="preserve" y="176.7012" clip-path="url(#clipPath4)" stroke="none">Waarde</text>
          </g>
        </g>
        <g text-rendering="geometricPrecision" shape-rendering="geometricPrecision" transform="matrix(1,0,0,1,-249,-121)">
          <line y2="184" fill="none" x1="569" clip-path="url(#clipPath4)" x2="718" y1="184"/>
          <text stroke-linecap="butt" x="573.0029" y="201.0449" clip-path="url(#clipPath4)" font-family="sans-serif" stroke="none" stroke-miterlimit="1.45" xml:space="preserve">letterlijke waarde: Getal</text>
          <line y2="208" fill="none" x1="569" clip-path="url(#clipPath4)" x2="718" y1="208"/>
        </g>
      </a>
    </g>
    <g id="y.node.2">
      <a target="_blank" xlink:type="simple" xlink:href="http://bp4mc2.org/def/mimex#Getalwaardelijst" xlink:show="new">
        <g fill="rgb(255,255,199)" text-rendering="geometricPrecision" shape-rendering="geometricPrecision" transform="matrix(1,0,0,1,-249,-121)" stroke="rgb(255,255,199)">
          <rect x="880.125" width="125.75" height="90" y="136" stroke="none"/>
        </g>
        <g text-rendering="geometricPrecision" stroke-miterlimit="1.45" shape-rendering="geometricPrecision" transform="matrix(1,0,0,1,-249,-121)" stroke-linecap="butt">
          <rect fill="none" x="880.125" width="125.75" height="90" y="136"/>
          <text x="892.501" xml:space="preserve" y="152.6016" clip-path="url(#clipPath5)" font-family="sans-serif" stroke="none">&lt;&lt;Objecttype&gt;&gt;</text>
        </g>
        <g>
          <g font-size="13px" stroke-linecap="butt" transform="matrix(1,0,0,1,-249,-121)" text-rendering="geometricPrecision" font-family="sans-serif" shape-rendering="geometricPrecision" font-weight="bold" stroke-miterlimit="1.45">
            <text x="888.7529" xml:space="preserve" y="176.7012" clip-path="url(#clipPath5)" stroke="none">Getalwaardelijst</text>
          </g>
        </g>
        <g text-rendering="geometricPrecision" shape-rendering="geometricPrecision" transform="matrix(1,0,0,1,-249,-121)">
          <line y2="184" fill="none" x1="881" clip-path="url(#clipPath5)" x2="1004" y1="184"/>
          <text stroke-linecap="butt" x="885.125" y="201.0449" clip-path="url(#clipPath5)" font-family="sans-serif" stroke="none" stroke-miterlimit="1.45" xml:space="preserve">waarde: Getal [0..*]</text>
          <text stroke-linecap="butt" x="885.125" y="215.1777" clip-path="url(#clipPath5)" font-family="sans-serif" stroke="none" stroke-miterlimit="1.45" xml:space="preserve">naam: Tekst</text>
          <line y2="222" fill="none" x1="881" clip-path="url(#clipPath5)" x2="1004" y1="222"/>
        </g>
      </a>
    </g>
    <g id="y.edge.0">
      <a target="_blank" xlink:type="simple" xlink:href="http://bp4mc2.org/def/mimex#WaardelijstWaarde" xlink:show="new">
        <g text-rendering="geometricPrecision" stroke-miterlimit="1.45" shape-rendering="geometricPrecision" transform="matrix(1,0,0,1,-249,-121)" stroke-linecap="butt">
          <path fill="none" d="M379.5056 181 L563.0289 181"/>
          <path d="M567.0289 181 L555.0289 175 L567.0289 181 L555.0289 187 Z" stroke="none"/>
          <path fill="none" stroke-miterlimit="10" d="M567.0289 181 L555.0289 175 L567.0289 181 L555.0289 187 Z" stroke-linecap="square"/>
        </g>
        <g>
          <g text-rendering="geometricPrecision" stroke-miterlimit="1.45" shape-rendering="geometricPrecision" font-family="sans-serif" transform="matrix(1,0,0,1,-249,-121)" stroke-linecap="butt">
            <text x="457.9688" xml:space="preserve" y="174.9688" stroke="none">bevat</text>
          </g>
        </g>
        <g>
          <g text-rendering="geometricPrecision" stroke-miterlimit="1.45" shape-rendering="geometricPrecision" font-family="sans-serif" transform="matrix(1,0,0,1,-249,-121)" stroke-linecap="butt">
            <text x="432.8291" xml:space="preserve" y="196.1016" stroke="none">«Relatiesoort»</text>
          </g>
        </g>
        <g>
          <g text-rendering="geometricPrecision" stroke-miterlimit="1.45" shape-rendering="geometricPrecision" font-family="sans-serif" transform="matrix(1,0,0,1,-249,-121)" stroke-linecap="butt">
            <text x="540.0381" xml:space="preserve" y="174.9688" stroke="none">0..*</text>
          </g>
        </g>
      </a>
    </g>
  </g>
</svg>
